DataRate=2000.000000
DataType=double
version=3
OpenSimVersion=4.3-2021-08-27-4bc7ad9
endheader
time	f1_1	f1_2	f1_3	p1_1	p1_2	p1_3	m1_1	m1_2	m1_3	f2_1	f2_2	f2_3	p2_1	p2_2	p2_3	m2_1	m2_2	m2_3	f3_1	f3_2	f3_3	p3_1	p3_2	p3_3	m3_1	m3_2	m3_3	f4_1	f4_2	f4_3	p4_1	p4_2	p4_3	m4_1	m4_2	m4_3
1.665	-0	0	0	-300	2252	0	0	0	0	24.53289031982422	-88.68475341796875	643.4180297851562	-300	1351	0	-159402.5	101610.984375	19750.509765625	-18.84786380377108	-7.943694461714193	121.9474563598633	-300	450.0000000000007	0	34135.94465195861	15111.42629681703	7435.8681640625	-0	0	0	305	450.0000000000007	0	0	0	0
1.6655	-0	0	0	-300	2252	0	0	0	0	24.54245567321777	-88.67519378662109	641.9486694335938	-300	1351	0	-158756.203125	100995.6796875	19587.623046875	-17.23539890613359	-7.780175008754307	125.0688323974609	-300	450.0000000000007	0	35069.41337359201	15760.37848605775	6726.4072265625	-0	0	0	305	450.0000000000007	0	0	0	0
1.666	-0	0	0	-300	2252	0	0	0	0	24.70653533935547	-88.48740386962891	639.60888671875	-300	1351	0	-158577.296875	100919.6953125	19646.296875	-15.10651362538752	-8.045118038561547	127.4920196533203	-300	450.0000000000007	0	35920.49540148345	15837.21348419722	6134.22705078125	-0	0	0	305	450.0000000000007	0	0	0	0
1.6665	-0	0	0	-300	2252	0	0	0	0	24.62210083007812	-88.13567352294922	639.3823852539062	-300	1351	0	-157832.984375	100673.6328125	19694.1015625	-12.98548566779021	-8.299631686388024	129.2788696289062	-300	450.0000000000007	0	36959.98755666678	16576.53286557237	5625.77978515625	-0	0	0	305	450.0000000000007	0	0	0	0
1.667	-0	0	0	-300	2252	0	0	0	0	24.61734008789062	-87.87783050537109	635.3707275390625	-300	1351	0	-157390.703125	100137.9921875	19552.794921875	-11.11748850215595	-8.211316594664474	132.4415283203125	-300	450.0000000000007	0	37873.7844201379	16840.2829055157	5032.11474609375	-0	0	0	305	450.0000000000007	0	0	0	0
1.6675	-0	0	0	-300	2252	0	0	0	0	24.53764343261719	-87.77919769287109	635.1825561523438	-300	1351	0	-156593.71875	99439.609375	19499.052734375	-9.085120799490763	-8.128188530362994	136.2408905029297	-300	450.0000000000007	0	38236.34688216739	17708.94698386381	4470.603515625	-0	0	0	305	450.0000000000007	0	0	0	0
1.668	-0	0	0	-300	2252	0	0	0	0	24.5888786315918	-87.55924987792969	631.7825317382812	-300	1351	0	-156111.59375	98820.078125	19522.2578125	-7.305855391769823	-8.219088873731412	138.7358551025391	-300	450.0000000000007	0	39415.50310381415	18357.59351978136	4020.048095703125	-0	0	0	305	450.0000000000007	0	0	0	0
1.6685	-0	0	0	-300	2252	0	0	0	0	24.00710487365723	-88.07894897460938	630.6668701171875	-300	1351	0	-155737.15625	98709.1640625	19438.630859375	-5.354377379480836	-8.398296590248448	142.9253387451172	-300	450.0000000000007	0	40392.97574419008	18720.74981250805	3425.3818359375	-0	0	0	305	450.0000000000007	0	0	0	0
1.669	-0	0	0	-300	2252	0	0	0	0	24.1618537902832	-86.83192443847656	628.5291748046875	-300	1351	0	-155248.34375	98060.6328125	19441.234375	-3.397734025827223	-8.642667918905421	147.0436553955078	-300	450.0000000000007	0	41172.60853102808	19307.82797158688	2829.832275390625	-0	0	0	305	450.0000000000007	0	0	0	0
1.6695	-0	0	0	-300	2252	0	0	0	0	23.91786575317383	-87.14122009277344	626.094482421875	-300	1351	0	-154680.40625	97572.078125	19463.966796875	-1.276575683021495	-8.216481264602173	148.9007720947266	-300	450.0000000000007	0	41944.71007055954	19833.28698971151	2214.150390625	-0	0	0	305	450.0000000000007	0	0	0	0
1.67	-0	0	0	-300	2252	0	0	0	0	24.07740211486816	-86.63475036621094	624.31005859375	-300	1351	0	-154430.15625	97467.953125	19373.607421875	0.5707961371386395	-8.2971238840463	154.3856658935547	-300	450.0000000000007	0	43381.11629225291	20480.86713062382	1882.241821289062	-0	0	0	305	450.0000000000007	0	0	0	0
1.6705	-0	0	0	-300	2252	0	0	0	0	23.89423942565918	-86.60642242431641	622.1160278320312	-300	1351	0	-153888.421875	96733.859375	19232.0078125	1.909319756304883	-8.13329306839646	156.4807891845703	-300	450.0000000000007	0	44310.24908235936	20993.1718587375	1407.522583007812	-0	0	0	305	450.0000000000007	0	0	0	0
1.671	-0	0	0	-300	2252	0	0	0	0	23.63606643676758	-86.08583068847656	618.7525634765625	-300	1351	0	-153321.265625	96349	19170.79296875	3.5136936993233	-8.388001288367148	158.6564483642578	-300	450.0000000000007	0	45037.22561563437	21661.76173426466	959.673583984375	-0	0	0	305	450.0000000000007	0	0	0	0
1.6715	-0	0	0	-300	2252	0	0	0	0	23.53744125366211	-85.84199523925781	618.2875366210938	-300	1351	0	-152813.5	96094.84375	19058.64453125	5.368779545001825	-8.29458308594088	163.513916015625	-300	450.0000000000007	0	46214.9833971494	22370.61530137109	450.7024536132812	-0	0	0	305	450.0000000000007	0	0	0	0
1.672	-0	0	0	-300	2252	0	0	0	0	23.2745361328125	-86.01083374023438	615.7968139648438	-300	1351	0	-151953.34375	95424.53125	19024.576171875	6.970554225733753	-8.024551086908971	167.3442077636719	-300	450.0000000000007	0	46783.55758690646	23033.89657622425	-163.8617095947266	-0	0	0	305	450.0000000000007	0	0	0	0
1.6725	-0	0	0	-300	2252	0	0	0	0	23.12430953979492	-85.97798919677734	613.0831909179688	-300	1351	0	-151237.40625	95069.96875	18910.685546875	8.726785991474367	-7.588052845011028	170.8153839111328	-300	450.0000000000007	0	48115.22943807546	23579.08608755848	-465.0246887207031	-0	0	0	305	450.0000000000007	0	0	0	0
1.673	-0	0	0	-300	2252	0	0	0	0	23.43422889709473	-85.40098571777344	612.2283935546875	-300	1351	0	-150990.53125	94460.7890625	18846.611328125	9.877391181503931	-7.320579573891283	173.5983581542969	-300	450.0000000000007	0	48933.59268915666	24269.26776395527	-882.7372436523438	-0	0	0	305	450.0000000000007	0	0	0	0
1.6735	-0	0	0	-300	2252	0	0	0	0	22.89432716369629	-85.64495849609375	608.8080444335938	-300	1351	0	-150606.4375	93860.0859375	18667.767578125	10.94183380053479	-6.964798925861553	176.0920867919922	-300	450.0000000000007	0	50062.15125499618	24907.78539141114	-1357.142456054688	-0	0	0	305	450.0000000000007	0	0	0	0
1.674	-0	0	0	-300	2252	0	0	0	0	22.29795265197754	-85.44803619384766	607.3214111328125	-300	1351	0	-150289.484375	93465.65625	18450.720703125	12.00627641559563	-6.518195104308874	180.2218933105469	-300	450.0000000000007	0	50710.20982099858	25542.57643536368	-1801.0205078125	-0	0	0	305	450.0000000000007	0	0	0	0
1.6745	-0	0	0	-300	2252	0	0	0	0	22.21341705322266	-84.93194580078125	604.588623046875	-300	1351	0	-149325.1875	92738.4296875	18534.2421875	13.06064059330886	-5.907518769616416	182.3860473632812	-300	450.0000000000007	0	52243.17073528425	26073.65853362152	-2186.3740234375	-0	0	0	305	450.0000000000007	0	0	0	0
1.675	-0	0	0	-300	2252	0	0	0	0	22.23671722412109	-84.75370025634766	603.41845703125	-300	1351	0	-148586.875	92539.8984375	18529.814453125	13.77780557082562	-5.546757572649242	186.8851013183594	-300	450.0000000000007	0	53069.67851178903	26897.13317912432	-2537.691650390625	-0	0	0	305	450.0000000000007	0	0	0	0
1.6755	-0	0	0	-300	2252	0	0	0	0	22.63155174255371	-84.58010101318359	600.3322143554688	-300	1351	0	-148093.390625	91924.546875	18446.91015625	14.75604937184103	-4.933543990765313	190.0666351318359	-300	450.0000000000007	0	54279.14723833215	27433.76409136688	-2720.389404296875	-0	0	0	305	450.0000000000007	0	0	0	0
1.676	-0	0	0	-300	2252	0	0	0	0	22.07310485839844	-84.472412109375	598.8092651367188	-300	1351	0	-147408.875	91270.5234375	18430.109375	15.81050129476575	-4.486998343782643	194.6052398681641	-300	450.0000000000007	0	54980.19407539305	28301.70943451062	-3047.3037109375	-0	0	0	305	450.0000000000007	0	0	0	0
1.6765	-0	0	0	-300	2252	0	0	0	0	21.14752960205078	-84.00826263427734	595.46142578125	-300	1351	0	-146660.234375	90968.140625	18132.94140625	16.51514833162716	-3.861358635933812	199.1732482910156	-300	450.0000000000007	0	56140.23310412224	29074.29542271753	-3373.923583984375	-0	0	0	305	450.0000000000007	0	0	0	0
1.677	-0	0	0	-300	2252	0	0	0	0	21.22747039794922	-83.25242614746094	595.1497192382812	-300	1351	0	-146257.71875	90477.546875	18252.453125	17.05730260580586	-2.99304744547219	204.6908111572266	-300	450.0000000000007	0	57318.07682222677	29803.97906795272	-3699.5361328125	-0	0	0	305	450.0000000000007	0	0	0	0
1.6775	-0	0	0	-300	2252	0	0	0	0	21.14289093017578	-83.30458831787109	589.3474731445312	-300	1351	0	-145524.625	89746.421875	17896.525390625	17.93443500613595	-2.639789512615524	207.8524017333984	-300	450.0000000000007	0	58577.49475252176	30683.72716987862	-3994.20263671875	-0	0	0	305	450.0000000000007	0	0	0	0
1.678	-0	0	0	-300	2252	0	0	0	0	21.10133361816406	-82.70839691162109	587.2285766601562	-300	1351	0	-144871.859375	89441.015625	17966.560546875	18.48394213073317	-2.261946108621439	211.7024993896484	-300	450.0000000000007	0	59286.9751845745	31523.262357141	-4202.12939453125	-0	0	0	305	450.0000000000007	0	0	0	0
1.6785	-0	0	0	-300	2252	0	0	0	0	20.31686019897461	-82.58689880371094	585.0725708007812	-300	1351	0	-144061.875	88887.7734375	17724.48828125	19.61500172414724	-1.04504642577366	215.883056640625	-300	450.0000000000007	0	60932.60796425135	32274.16867907389	-4413.6142578125	-0	0	0	305	450.0000000000007	0	0	0	0
1.679	-0	0	0	-300	2252	0	0	0	0	19.88008308410645	-81.901611328125	582.265625	-300	1351	0	-143350.28125	88109.84375	17840.84765625	19.9698162298661	-0.502851626576634	219.7331390380859	-300	450.0000000000007	0	62212.18605490982	33059.81131313103	-4737.5263671875	-0	0	0	305	450.0000000000007	0	0	0	0
